<mxfile host="65bd71144e" pages="5">
    <diagram id="RfkMmDbVt5dNeWL4ry-i" name="flujo de usuario">
        <mxGraphModel dx="1115" dy="474" grid="1" gridSize="10" guides="1" tooltips="1" connect="1" arrows="1" fold="1" page="1" pageScale="1" pageWidth="827" pageHeight="1169" math="0" shadow="0">
            <root>
                <mxCell id="0"/>
                <mxCell id="1" parent="0"/>
                <mxCell id="G6E6VafhqYalcgsrabVk-4" style="edgeStyle=orthogonalEdgeStyle;rounded=0;orthogonalLoop=1;jettySize=auto;html=1;" parent="1" source="G6E6VafhqYalcgsrabVk-2" target="G6E6VafhqYalcgsrabVk-5" edge="1">
                    <mxGeometry relative="1" as="geometry">
                        <mxPoint x="350" y="550" as="targetPoint"/>
                    </mxGeometry>
                </mxCell>
                <mxCell id="G6E6VafhqYalcgsrabVk-2" value="" style="ellipse;whiteSpace=wrap;html=1;" parent="1" vertex="1">
                    <mxGeometry x="70" y="510" width="120" height="80" as="geometry"/>
                </mxCell>
                <mxCell id="G6E6VafhqYalcgsrabVk-6" style="edgeStyle=orthogonalEdgeStyle;rounded=0;orthogonalLoop=1;jettySize=auto;html=1;" parent="1" source="G6E6VafhqYalcgsrabVk-5" target="G6E6VafhqYalcgsrabVk-7" edge="1">
                    <mxGeometry relative="1" as="geometry">
                        <mxPoint x="540" y="550" as="targetPoint"/>
                    </mxGeometry>
                </mxCell>
                <mxCell id="G6E6VafhqYalcgsrabVk-5" value="Oauth" style="whiteSpace=wrap;html=1;aspect=fixed;" parent="1" vertex="1">
                    <mxGeometry x="270" y="510" width="80" height="80" as="geometry"/>
                </mxCell>
                <mxCell id="G6E6VafhqYalcgsrabVk-9" style="edgeStyle=orthogonalEdgeStyle;rounded=0;orthogonalLoop=1;jettySize=auto;html=1;" parent="1" source="G6E6VafhqYalcgsrabVk-7" target="G6E6VafhqYalcgsrabVk-11" edge="1">
                    <mxGeometry relative="1" as="geometry">
                        <mxPoint x="610" y="680" as="targetPoint"/>
                    </mxGeometry>
                </mxCell>
                <mxCell id="G6E6VafhqYalcgsrabVk-10" style="edgeStyle=orthogonalEdgeStyle;rounded=0;orthogonalLoop=1;jettySize=auto;html=1;entryX=0.5;entryY=0;entryDx=0;entryDy=0;" parent="1" source="G6E6VafhqYalcgsrabVk-7" target="G6E6VafhqYalcgsrabVk-5" edge="1">
                    <mxGeometry relative="1" as="geometry">
                        <Array as="points">
                            <mxPoint x="610" y="440"/>
                            <mxPoint x="310" y="440"/>
                        </Array>
                    </mxGeometry>
                </mxCell>
                <mxCell id="G6E6VafhqYalcgsrabVk-7" value="¿Authenticado?" style="rhombus;whiteSpace=wrap;html=1;" parent="1" vertex="1">
                    <mxGeometry x="545" y="480" width="130" height="130" as="geometry"/>
                </mxCell>
                <mxCell id="G6E6VafhqYalcgsrabVk-15" style="edgeStyle=orthogonalEdgeStyle;rounded=0;orthogonalLoop=1;jettySize=auto;html=1;" parent="1" source="G6E6VafhqYalcgsrabVk-11" target="G6E6VafhqYalcgsrabVk-14" edge="1">
                    <mxGeometry relative="1" as="geometry"/>
                </mxCell>
                <mxCell id="G6E6VafhqYalcgsrabVk-11" value="Store helper" style="rounded=0;whiteSpace=wrap;html=1;" parent="1" vertex="1">
                    <mxGeometry x="550" y="670" width="120" height="60" as="geometry"/>
                </mxCell>
                <mxCell id="G6E6VafhqYalcgsrabVk-16" style="edgeStyle=orthogonalEdgeStyle;rounded=0;orthogonalLoop=1;jettySize=auto;html=1;entryX=0;entryY=0.5;entryDx=0;entryDy=0;" parent="1" source="G6E6VafhqYalcgsrabVk-14" target="G6E6VafhqYalcgsrabVk-18" edge="1">
                    <mxGeometry relative="1" as="geometry">
                        <mxPoint x="870" y="950.0344827586207" as="targetPoint"/>
                    </mxGeometry>
                </mxCell>
                <mxCell id="G6E6VafhqYalcgsrabVk-17" value="sI&lt;br&gt;" style="edgeLabel;html=1;align=center;verticalAlign=middle;resizable=0;points=[];" parent="G6E6VafhqYalcgsrabVk-16" vertex="1" connectable="0">
                    <mxGeometry x="-0.095" y="2" relative="1" as="geometry">
                        <mxPoint as="offset"/>
                    </mxGeometry>
                </mxCell>
                <mxCell id="G6E6VafhqYalcgsrabVk-22" style="edgeStyle=orthogonalEdgeStyle;rounded=0;orthogonalLoop=1;jettySize=auto;html=1;" parent="1" source="G6E6VafhqYalcgsrabVk-14" target="G6E6VafhqYalcgsrabVk-24" edge="1">
                    <mxGeometry relative="1" as="geometry">
                        <mxPoint x="610" y="1110.0000000000002" as="targetPoint"/>
                    </mxGeometry>
                </mxCell>
                <mxCell id="G6E6VafhqYalcgsrabVk-23" value="no" style="edgeLabel;html=1;align=center;verticalAlign=middle;resizable=0;points=[];" parent="G6E6VafhqYalcgsrabVk-22" vertex="1" connectable="0">
                    <mxGeometry x="-0.1493" y="3" relative="1" as="geometry">
                        <mxPoint as="offset"/>
                    </mxGeometry>
                </mxCell>
                <mxCell id="G6E6VafhqYalcgsrabVk-14" value="¿Tiene creado algún negocio?" style="rhombus;whiteSpace=wrap;html=1;" parent="1" vertex="1">
                    <mxGeometry x="545" y="820" width="130" height="150" as="geometry"/>
                </mxCell>
                <mxCell id="G6E6VafhqYalcgsrabVk-19" style="edgeStyle=orthogonalEdgeStyle;rounded=0;orthogonalLoop=1;jettySize=auto;html=1;" parent="1" source="G6E6VafhqYalcgsrabVk-18" target="G6E6VafhqYalcgsrabVk-21" edge="1">
                    <mxGeometry relative="1" as="geometry">
                        <mxPoint x="960" y="740" as="targetPoint"/>
                    </mxGeometry>
                </mxCell>
                <mxCell id="G6E6VafhqYalcgsrabVk-20" value="No" style="edgeLabel;html=1;align=center;verticalAlign=middle;resizable=0;points=[];" parent="G6E6VafhqYalcgsrabVk-19" vertex="1" connectable="0">
                    <mxGeometry x="0.1142" y="-1" relative="1" as="geometry">
                        <mxPoint as="offset"/>
                    </mxGeometry>
                </mxCell>
                <mxCell id="G6E6VafhqYalcgsrabVk-25" style="edgeStyle=orthogonalEdgeStyle;rounded=0;orthogonalLoop=1;jettySize=auto;html=1;" parent="1" source="G6E6VafhqYalcgsrabVk-18" target="G6E6VafhqYalcgsrabVk-27" edge="1">
                    <mxGeometry relative="1" as="geometry">
                        <mxPoint x="915" y="1190.0000000000002" as="targetPoint"/>
                    </mxGeometry>
                </mxCell>
                <mxCell id="G6E6VafhqYalcgsrabVk-26" value="Si" style="edgeLabel;html=1;align=center;verticalAlign=middle;resizable=0;points=[];" parent="G6E6VafhqYalcgsrabVk-25" vertex="1" connectable="0">
                    <mxGeometry x="-0.2642" y="-1" relative="1" as="geometry">
                        <mxPoint as="offset"/>
                    </mxGeometry>
                </mxCell>
                <mxCell id="G6E6VafhqYalcgsrabVk-18" value="¿Más de uno?" style="rhombus;whiteSpace=wrap;html=1;" parent="1" vertex="1">
                    <mxGeometry x="850" y="920" width="130" height="110" as="geometry"/>
                </mxCell>
                <mxCell id="Fzo17iVt1CU-Adv-6ufx-1" style="edgeStyle=orthogonalEdgeStyle;rounded=0;orthogonalLoop=1;jettySize=auto;html=1;entryX=0.5;entryY=1;entryDx=0;entryDy=0;" parent="1" source="G6E6VafhqYalcgsrabVk-21" target="VcP_AITg4stpnvhMtH1J-1" edge="1">
                    <mxGeometry relative="1" as="geometry">
                        <mxPoint x="1420" y="1250" as="targetPoint"/>
                    </mxGeometry>
                </mxCell>
                <mxCell id="VcP_AITg4stpnvhMtH1J-2" style="edgeStyle=orthogonalEdgeStyle;rounded=0;orthogonalLoop=1;jettySize=auto;html=1;" parent="1" source="G6E6VafhqYalcgsrabVk-21" target="VcP_AITg4stpnvhMtH1J-3" edge="1">
                    <mxGeometry relative="1" as="geometry">
                        <mxPoint x="1450" y="1500" as="targetPoint"/>
                    </mxGeometry>
                </mxCell>
                <mxCell id="0WDPMokxTaHw_aszTVo7-1" style="edgeStyle=orthogonalEdgeStyle;rounded=0;orthogonalLoop=1;jettySize=auto;html=1;" parent="1" source="G6E6VafhqYalcgsrabVk-21" target="0WDPMokxTaHw_aszTVo7-2" edge="1">
                    <mxGeometry relative="1" as="geometry">
                        <mxPoint x="1400" y="1740" as="targetPoint"/>
                        <Array as="points">
                            <mxPoint x="1059" y="1750"/>
                        </Array>
                    </mxGeometry>
                </mxCell>
                <mxCell id="xBV7FVYYFO_Ewpu7MFS4-1" style="edgeStyle=orthogonalEdgeStyle;rounded=0;orthogonalLoop=1;jettySize=auto;html=1;" parent="1" source="G6E6VafhqYalcgsrabVk-21" target="xBV7FVYYFO_Ewpu7MFS4-2" edge="1">
                    <mxGeometry relative="1" as="geometry">
                        <mxPoint x="1200" y="1580" as="targetPoint"/>
                    </mxGeometry>
                </mxCell>
                <UserObject label="Dahboard de negocio" link="data:page/id,v6DjocmXlNZij4xRvVBf" id="G6E6VafhqYalcgsrabVk-21">
                    <mxCell style="rounded=1;whiteSpace=wrap;html=1;" parent="1" vertex="1">
                        <mxGeometry x="990" y="1290" width="139" height="60" as="geometry"/>
                    </mxCell>
                </UserObject>
                <mxCell id="nHt_991ogEZsaRY1KxrY-1" style="edgeStyle=orthogonalEdgeStyle;rounded=0;orthogonalLoop=1;jettySize=auto;html=1;entryX=0;entryY=0.5;entryDx=0;entryDy=0;" parent="1" source="G6E6VafhqYalcgsrabVk-24" target="G6E6VafhqYalcgsrabVk-21" edge="1">
                    <mxGeometry relative="1" as="geometry">
                        <Array as="points">
                            <mxPoint x="600" y="1380"/>
                            <mxPoint x="940" y="1380"/>
                            <mxPoint x="940" y="1330"/>
                        </Array>
                    </mxGeometry>
                </mxCell>
                <mxCell id="G6E6VafhqYalcgsrabVk-24" value="Crear negocio" style="rounded=1;whiteSpace=wrap;html=1;" parent="1" vertex="1">
                    <mxGeometry x="550" y="1140" width="120" height="60" as="geometry"/>
                </mxCell>
                <mxCell id="G6E6VafhqYalcgsrabVk-28" style="edgeStyle=orthogonalEdgeStyle;rounded=0;orthogonalLoop=1;jettySize=auto;html=1;" parent="1" source="G6E6VafhqYalcgsrabVk-27" target="G6E6VafhqYalcgsrabVk-21" edge="1">
                    <mxGeometry relative="1" as="geometry"/>
                </mxCell>
                <mxCell id="G6E6VafhqYalcgsrabVk-27" value="Da ha elegir&amp;nbsp; que negocio quiere abrir el usuario" style="rounded=1;whiteSpace=wrap;html=1;" parent="1" vertex="1">
                    <mxGeometry x="855" y="1150" width="120" height="60" as="geometry"/>
                </mxCell>
                <UserObject label="inventario" link="data:page/id,DWWxPOnDmK70uYg21Ifs" id="VcP_AITg4stpnvhMtH1J-1">
                    <mxCell style="rounded=1;whiteSpace=wrap;html=1;" parent="1" vertex="1">
                        <mxGeometry x="1390" y="1160" width="120" height="60" as="geometry"/>
                    </mxCell>
                </UserObject>
                <mxCell id="VcP_AITg4stpnvhMtH1J-3" value="Proveedores" style="rounded=1;whiteSpace=wrap;html=1;" parent="1" vertex="1">
                    <mxGeometry x="1390" y="1470" width="120" height="60" as="geometry"/>
                </mxCell>
                <UserObject label="Clientes" link="data:page/id,IoNmQR8w6x0UQzWgCLIl" id="0WDPMokxTaHw_aszTVo7-2">
                    <mxCell style="rounded=1;whiteSpace=wrap;html=1;" parent="1" vertex="1">
                        <mxGeometry x="1430" y="1724" width="120" height="60" as="geometry"/>
                    </mxCell>
                </UserObject>
                <UserObject label="Trabajadores" link="data:page/id,J9V6BLGrJr3ILemB7VuB" id="xBV7FVYYFO_Ewpu7MFS4-2">
                    <mxCell style="rounded=1;whiteSpace=wrap;html=1;" parent="1" vertex="1">
                        <mxGeometry x="1160" y="1590" width="120" height="60" as="geometry"/>
                    </mxCell>
                </UserObject>
            </root>
        </mxGraphModel>
    </diagram>
    <diagram id="v6DjocmXlNZij4xRvVBf" name="dashboard de negocio">
        <mxGraphModel dx="1942" dy="474" grid="1" gridSize="10" guides="1" tooltips="1" connect="1" arrows="1" fold="1" page="1" pageScale="1" pageWidth="827" pageHeight="1169" math="0" shadow="0">
            <root>
                <mxCell id="hCjHNbDSzBZaDk7ATthl-0"/>
                <mxCell id="hCjHNbDSzBZaDk7ATthl-1" parent="hCjHNbDSzBZaDk7ATthl-0"/>
                <mxCell id="wh-NOcEaVlfYgZbcKxfW-3" style="edgeStyle=orthogonalEdgeStyle;rounded=0;orthogonalLoop=1;jettySize=auto;html=1;" parent="hCjHNbDSzBZaDk7ATthl-1" source="wh-NOcEaVlfYgZbcKxfW-0" target="wh-NOcEaVlfYgZbcKxfW-4" edge="1">
                    <mxGeometry relative="1" as="geometry">
                        <mxPoint x="40" y="580" as="targetPoint"/>
                    </mxGeometry>
                </mxCell>
                <mxCell id="wh-NOcEaVlfYgZbcKxfW-5" style="edgeStyle=orthogonalEdgeStyle;rounded=0;orthogonalLoop=1;jettySize=auto;html=1;" parent="hCjHNbDSzBZaDk7ATthl-1" source="wh-NOcEaVlfYgZbcKxfW-0" target="wh-NOcEaVlfYgZbcKxfW-6" edge="1">
                    <mxGeometry relative="1" as="geometry">
                        <mxPoint x="380" y="630" as="targetPoint"/>
                    </mxGeometry>
                </mxCell>
                <mxCell id="wh-NOcEaVlfYgZbcKxfW-7" style="edgeStyle=orthogonalEdgeStyle;rounded=0;orthogonalLoop=1;jettySize=auto;html=1;entryX=0.5;entryY=0;entryDx=0;entryDy=0;" parent="hCjHNbDSzBZaDk7ATthl-1" source="wh-NOcEaVlfYgZbcKxfW-0" target="wh-NOcEaVlfYgZbcKxfW-8" edge="1">
                    <mxGeometry relative="1" as="geometry">
                        <mxPoint x="720" y="620" as="targetPoint"/>
                    </mxGeometry>
                </mxCell>
                <mxCell id="wh-NOcEaVlfYgZbcKxfW-9" style="edgeStyle=orthogonalEdgeStyle;rounded=0;orthogonalLoop=1;jettySize=auto;html=1;entryX=0.5;entryY=0;entryDx=0;entryDy=0;" parent="hCjHNbDSzBZaDk7ATthl-1" source="wh-NOcEaVlfYgZbcKxfW-0" target="wh-NOcEaVlfYgZbcKxfW-10" edge="1">
                    <mxGeometry relative="1" as="geometry">
                        <mxPoint x="710" y="640" as="targetPoint"/>
                    </mxGeometry>
                </mxCell>
                <mxCell id="wh-NOcEaVlfYgZbcKxfW-0" value="Dashboard&amp;nbsp; negocio" style="rounded=1;whiteSpace=wrap;html=1;" parent="hCjHNbDSzBZaDk7ATthl-1" vertex="1">
                    <mxGeometry x="150" y="410" width="460" height="80" as="geometry"/>
                </mxCell>
                <mxCell id="wh-NOcEaVlfYgZbcKxfW-4" value="Metricas&amp;nbsp; rapidas" style="rounded=1;whiteSpace=wrap;html=1;" parent="hCjHNbDSzBZaDk7ATthl-1" vertex="1">
                    <mxGeometry x="-690" y="710" width="120" height="60" as="geometry"/>
                </mxCell>
                <mxCell id="wh-NOcEaVlfYgZbcKxfW-6" value="Realizar la venta facilmente" style="rounded=1;whiteSpace=wrap;html=1;" parent="hCjHNbDSzBZaDk7ATthl-1" vertex="1">
                    <mxGeometry x="-440" y="710" width="120" height="60" as="geometry"/>
                </mxCell>
                <mxCell id="wh-NOcEaVlfYgZbcKxfW-8" value="Encontrar productos failmente" style="rounded=1;whiteSpace=wrap;html=1;" parent="hCjHNbDSzBZaDk7ATthl-1" vertex="1">
                    <mxGeometry x="-260" y="700" width="120" height="60" as="geometry"/>
                </mxCell>
                <mxCell id="0pYB-8liDUiMc6ymkU_Z-7" style="edgeStyle=orthogonalEdgeStyle;rounded=0;orthogonalLoop=1;jettySize=auto;html=1;entryX=0.5;entryY=0;entryDx=0;entryDy=0;" parent="hCjHNbDSzBZaDk7ATthl-1" source="wh-NOcEaVlfYgZbcKxfW-0" target="0pYB-8liDUiMc6ymkU_Z-8" edge="1">
                    <mxGeometry relative="1" as="geometry">
                        <mxPoint x="450" y="60" as="targetPoint"/>
                    </mxGeometry>
                </mxCell>
                <mxCell id="kZhDQ1NiSS8WXQ2Zydk7-0" style="edgeStyle=orthogonalEdgeStyle;rounded=0;orthogonalLoop=1;jettySize=auto;html=1;" parent="hCjHNbDSzBZaDk7ATthl-1" source="0pYB-8liDUiMc6ymkU_Z-3" target="kZhDQ1NiSS8WXQ2Zydk7-1" edge="1">
                    <mxGeometry relative="1" as="geometry">
                        <mxPoint x="390" y="1130" as="targetPoint"/>
                    </mxGeometry>
                </mxCell>
                <mxCell id="wh-NOcEaVlfYgZbcKxfW-10" value="Acceso rapido usuario" style="rounded=1;whiteSpace=wrap;html=1;" parent="hCjHNbDSzBZaDk7ATthl-1" vertex="1">
                    <mxGeometry x="830" y="630" width="120" height="60" as="geometry"/>
                </mxCell>
                <mxCell id="wh-NOcEaVlfYgZbcKxfW-12" value="Cambiar negocio" style="rounded=1;whiteSpace=wrap;html=1;" parent="hCjHNbDSzBZaDk7ATthl-1" vertex="1">
                    <mxGeometry x="720" y="810" width="120" height="60" as="geometry"/>
                </mxCell>
                <mxCell id="wh-NOcEaVlfYgZbcKxfW-11" style="edgeStyle=orthogonalEdgeStyle;rounded=0;orthogonalLoop=1;jettySize=auto;html=1;" parent="hCjHNbDSzBZaDk7ATthl-1" source="wh-NOcEaVlfYgZbcKxfW-10" target="wh-NOcEaVlfYgZbcKxfW-12" edge="1">
                    <mxGeometry x="-150" y="630" as="geometry">
                        <mxPoint x="890" y="770" as="targetPoint"/>
                    </mxGeometry>
                </mxCell>
                <mxCell id="wh-NOcEaVlfYgZbcKxfW-14" value="Perfil" style="rounded=1;whiteSpace=wrap;html=1;" parent="hCjHNbDSzBZaDk7ATthl-1" vertex="1">
                    <mxGeometry x="930" y="810" width="120" height="60" as="geometry"/>
                </mxCell>
                <mxCell id="wh-NOcEaVlfYgZbcKxfW-13" style="edgeStyle=orthogonalEdgeStyle;rounded=0;orthogonalLoop=1;jettySize=auto;html=1;" parent="hCjHNbDSzBZaDk7ATthl-1" source="wh-NOcEaVlfYgZbcKxfW-10" target="wh-NOcEaVlfYgZbcKxfW-14" edge="1">
                    <mxGeometry x="-150" y="630" as="geometry">
                        <mxPoint x="1050" y="860" as="targetPoint"/>
                    </mxGeometry>
                </mxCell>
                <mxCell id="wh-NOcEaVlfYgZbcKxfW-16" value="Cerrar sesión" style="rounded=1;whiteSpace=wrap;html=1;" parent="hCjHNbDSzBZaDk7ATthl-1" vertex="1">
                    <mxGeometry x="930" y="990" width="120" height="60" as="geometry"/>
                </mxCell>
                <mxCell id="wh-NOcEaVlfYgZbcKxfW-15" style="edgeStyle=orthogonalEdgeStyle;rounded=0;orthogonalLoop=1;jettySize=auto;html=1;entryX=0.5;entryY=0;entryDx=0;entryDy=0;" parent="hCjHNbDSzBZaDk7ATthl-1" source="wh-NOcEaVlfYgZbcKxfW-14" target="wh-NOcEaVlfYgZbcKxfW-16" edge="1">
                    <mxGeometry x="-150" y="630" as="geometry">
                        <mxPoint x="990" y="1010" as="targetPoint"/>
                    </mxGeometry>
                </mxCell>
                <mxCell id="0pYB-8liDUiMc6ymkU_Z-3" value="Administración" style="rounded=1;whiteSpace=wrap;html=1;" parent="hCjHNbDSzBZaDk7ATthl-1" vertex="1">
                    <mxGeometry x="40" y="960" width="120" height="60" as="geometry"/>
                </mxCell>
                <mxCell id="0pYB-8liDUiMc6ymkU_Z-4" value="Inventario" style="rounded=1;whiteSpace=wrap;html=1;" parent="hCjHNbDSzBZaDk7ATthl-1" vertex="1">
                    <mxGeometry x="-290" y="1109" width="120" height="60" as="geometry"/>
                </mxCell>
                <mxCell id="0pYB-8liDUiMc6ymkU_Z-0" style="edgeStyle=orthogonalEdgeStyle;rounded=0;orthogonalLoop=1;jettySize=auto;html=1;" parent="hCjHNbDSzBZaDk7ATthl-1" source="0pYB-8liDUiMc6ymkU_Z-3" target="0pYB-8liDUiMc6ymkU_Z-4" edge="1">
                    <mxGeometry x="-150" y="630" as="geometry">
                        <mxPoint x="-354" y="1010" as="targetPoint"/>
                    </mxGeometry>
                </mxCell>
                <mxCell id="0pYB-8liDUiMc6ymkU_Z-5" value="Proveedores" style="rounded=1;whiteSpace=wrap;html=1;" parent="hCjHNbDSzBZaDk7ATthl-1" vertex="1">
                    <mxGeometry x="-60" y="1240" width="120" height="60" as="geometry"/>
                </mxCell>
                <mxCell id="0pYB-8liDUiMc6ymkU_Z-1" style="edgeStyle=orthogonalEdgeStyle;rounded=0;orthogonalLoop=1;jettySize=auto;html=1;entryX=0.5;entryY=0;entryDx=0;entryDy=0;" parent="hCjHNbDSzBZaDk7ATthl-1" source="0pYB-8liDUiMc6ymkU_Z-3" target="0pYB-8liDUiMc6ymkU_Z-5" edge="1">
                    <mxGeometry x="-150" y="630" as="geometry">
                        <mxPoint x="1160" y="2240" as="targetPoint"/>
                        <Array as="points"/>
                    </mxGeometry>
                </mxCell>
                <mxCell id="0pYB-8liDUiMc6ymkU_Z-6" value="Clientes" style="rounded=1;whiteSpace=wrap;html=1;" parent="hCjHNbDSzBZaDk7ATthl-1" vertex="1">
                    <mxGeometry x="150" y="1240" width="120" height="60" as="geometry"/>
                </mxCell>
                <mxCell id="0pYB-8liDUiMc6ymkU_Z-9" style="edgeStyle=orthogonalEdgeStyle;rounded=0;orthogonalLoop=1;jettySize=auto;html=1;" parent="hCjHNbDSzBZaDk7ATthl-1" source="0pYB-8liDUiMc6ymkU_Z-8" target="0pYB-8liDUiMc6ymkU_Z-3" edge="1">
                    <mxGeometry x="-150" y="630" as="geometry"/>
                </mxCell>
                <mxCell id="0pYB-8liDUiMc6ymkU_Z-8" value="Menu" style="rounded=0;whiteSpace=wrap;html=1;" parent="hCjHNbDSzBZaDk7ATthl-1" vertex="1">
                    <mxGeometry x="240" y="720" width="120" height="60" as="geometry"/>
                </mxCell>
                <mxCell id="0pYB-8liDUiMc6ymkU_Z-2" style="edgeStyle=orthogonalEdgeStyle;rounded=0;orthogonalLoop=1;jettySize=auto;html=1;" parent="hCjHNbDSzBZaDk7ATthl-1" source="0pYB-8liDUiMc6ymkU_Z-3" target="0pYB-8liDUiMc6ymkU_Z-6" edge="1">
                    <mxGeometry x="-150" y="630" as="geometry">
                        <mxPoint x="26" y="1020" as="targetPoint"/>
                    </mxGeometry>
                </mxCell>
                <mxCell id="0pYB-8liDUiMc6ymkU_Z-11" value="Negocios" style="rounded=1;whiteSpace=wrap;html=1;" parent="hCjHNbDSzBZaDk7ATthl-1" vertex="1">
                    <mxGeometry x="484" y="960" width="120" height="60" as="geometry"/>
                </mxCell>
                <mxCell id="0pYB-8liDUiMc6ymkU_Z-10" style="edgeStyle=orthogonalEdgeStyle;rounded=0;orthogonalLoop=1;jettySize=auto;html=1;" parent="hCjHNbDSzBZaDk7ATthl-1" source="0pYB-8liDUiMc6ymkU_Z-8" target="0pYB-8liDUiMc6ymkU_Z-11" edge="1">
                    <mxGeometry x="-150" y="630" as="geometry">
                        <mxPoint x="540" y="990" as="targetPoint"/>
                    </mxGeometry>
                </mxCell>
                <mxCell id="kZhDQ1NiSS8WXQ2Zydk7-1" value="Trabajadores" style="rounded=1;whiteSpace=wrap;html=1;" parent="hCjHNbDSzBZaDk7ATthl-1" vertex="1">
                    <mxGeometry x="330" y="1120" width="120" height="60" as="geometry"/>
                </mxCell>
            </root>
        </mxGraphModel>
    </diagram>
    <diagram id="DWWxPOnDmK70uYg21Ifs" name="Inventario">
        <mxGraphModel dx="1115" dy="474" grid="1" gridSize="10" guides="1" tooltips="1" connect="1" arrows="1" fold="1" page="1" pageScale="1" pageWidth="827" pageHeight="1169" math="0" shadow="0">
            <root>
                <mxCell id="ktvenG23UuUJDfky7fMs-0"/>
                <mxCell id="ktvenG23UuUJDfky7fMs-1" parent="ktvenG23UuUJDfky7fMs-0"/>
                <mxCell id="DQCf3-JYJZ1t2chpPL01-1" style="edgeStyle=orthogonalEdgeStyle;rounded=0;orthogonalLoop=1;jettySize=auto;html=1;" parent="ktvenG23UuUJDfky7fMs-1" source="N2jLwWEtCfCivO9WUauV-0" target="DQCf3-JYJZ1t2chpPL01-0" edge="1">
                    <mxGeometry relative="1" as="geometry"/>
                </mxCell>
                <mxCell id="DQCf3-JYJZ1t2chpPL01-4" style="edgeStyle=orthogonalEdgeStyle;rounded=0;orthogonalLoop=1;jettySize=auto;html=1;" parent="ktvenG23UuUJDfky7fMs-1" source="N2jLwWEtCfCivO9WUauV-0" target="DQCf3-JYJZ1t2chpPL01-5" edge="1">
                    <mxGeometry relative="1" as="geometry">
                        <mxPoint x="610" y="460" as="targetPoint"/>
                    </mxGeometry>
                </mxCell>
                <mxCell id="N2jLwWEtCfCivO9WUauV-0" value="Inventario" style="rounded=1;whiteSpace=wrap;html=1;" parent="ktvenG23UuUJDfky7fMs-1" vertex="1">
                    <mxGeometry x="390" y="240" width="120" height="60" as="geometry"/>
                </mxCell>
                <mxCell id="DQCf3-JYJZ1t2chpPL01-0" value="Registrar productos" style="rounded=1;whiteSpace=wrap;html=1;" parent="ktvenG23UuUJDfky7fMs-1" vertex="1">
                    <mxGeometry x="40" y="450" width="120" height="60" as="geometry"/>
                </mxCell>
                <mxCell id="DQCf3-JYJZ1t2chpPL01-3" value="Aumentar stock" style="rounded=1;whiteSpace=wrap;html=1;" parent="ktvenG23UuUJDfky7fMs-1" vertex="1">
                    <mxGeometry x="560" y="690" width="120" height="60" as="geometry"/>
                </mxCell>
                <mxCell id="DQCf3-JYJZ1t2chpPL01-6" style="edgeStyle=orthogonalEdgeStyle;rounded=0;orthogonalLoop=1;jettySize=auto;html=1;" parent="ktvenG23UuUJDfky7fMs-1" source="DQCf3-JYJZ1t2chpPL01-5" target="DQCf3-JYJZ1t2chpPL01-7" edge="1">
                    <mxGeometry relative="1" as="geometry">
                        <mxPoint x="490" y="670" as="targetPoint"/>
                    </mxGeometry>
                </mxCell>
                <mxCell id="DQCf3-JYJZ1t2chpPL01-8" style="edgeStyle=orthogonalEdgeStyle;rounded=0;orthogonalLoop=1;jettySize=auto;html=1;" parent="ktvenG23UuUJDfky7fMs-1" source="DQCf3-JYJZ1t2chpPL01-5" target="DQCf3-JYJZ1t2chpPL01-3" edge="1">
                    <mxGeometry relative="1" as="geometry"/>
                </mxCell>
                <mxCell id="DQCf3-JYJZ1t2chpPL01-9" style="edgeStyle=orthogonalEdgeStyle;rounded=0;orthogonalLoop=1;jettySize=auto;html=1;" parent="ktvenG23UuUJDfky7fMs-1" source="DQCf3-JYJZ1t2chpPL01-5" target="DQCf3-JYJZ1t2chpPL01-10" edge="1">
                    <mxGeometry relative="1" as="geometry">
                        <mxPoint x="830" y="720" as="targetPoint"/>
                    </mxGeometry>
                </mxCell>
                <mxCell id="DQCf3-JYJZ1t2chpPL01-5" value="Detallle de producto" style="rounded=0;whiteSpace=wrap;html=1;" parent="ktvenG23UuUJDfky7fMs-1" vertex="1">
                    <mxGeometry x="560" y="450" width="120" height="60" as="geometry"/>
                </mxCell>
                <mxCell id="DQCf3-JYJZ1t2chpPL01-7" value="Editar producto" style="rounded=1;whiteSpace=wrap;html=1;" parent="ktvenG23UuUJDfky7fMs-1" vertex="1">
                    <mxGeometry x="340" y="690" width="120" height="60" as="geometry"/>
                </mxCell>
                <mxCell id="DQCf3-JYJZ1t2chpPL01-10" value="Eliminar producto" style="rounded=1;whiteSpace=wrap;html=1;" parent="ktvenG23UuUJDfky7fMs-1" vertex="1">
                    <mxGeometry x="760" y="690" width="120" height="60" as="geometry"/>
                </mxCell>
            </root>
        </mxGraphModel>
    </diagram>
    <diagram id="IoNmQR8w6x0UQzWgCLIl" name="clientes">
        <mxGraphModel dx="1115" dy="474" grid="1" gridSize="10" guides="1" tooltips="1" connect="1" arrows="1" fold="1" page="1" pageScale="1" pageWidth="827" pageHeight="1169" math="0" shadow="0">
            <root>
                <mxCell id="2sZZnEBah4CEPU8WiaMz-0"/>
                <mxCell id="2sZZnEBah4CEPU8WiaMz-1" parent="2sZZnEBah4CEPU8WiaMz-0"/>
                <mxCell id="H34R8tXHD5ismB7b54UU-1" style="edgeStyle=orthogonalEdgeStyle;rounded=0;orthogonalLoop=1;jettySize=auto;html=1;entryX=0.451;entryY=0.028;entryDx=0;entryDy=0;entryPerimeter=0;" parent="2sZZnEBah4CEPU8WiaMz-1" source="H34R8tXHD5ismB7b54UU-0" target="H34R8tXHD5ismB7b54UU-2" edge="1">
                    <mxGeometry relative="1" as="geometry">
                        <mxPoint x="140" y="470" as="targetPoint"/>
                    </mxGeometry>
                </mxCell>
                <mxCell id="H34R8tXHD5ismB7b54UU-0" value="clientes" style="rounded=1;whiteSpace=wrap;html=1;" parent="2sZZnEBah4CEPU8WiaMz-1" vertex="1">
                    <mxGeometry x="360" y="280" width="120" height="60" as="geometry"/>
                </mxCell>
                <mxCell id="H34R8tXHD5ismB7b54UU-2" value="Crud clientes" style="rounded=1;whiteSpace=wrap;html=1;" parent="2sZZnEBah4CEPU8WiaMz-1" vertex="1">
                    <mxGeometry x="60" y="525" width="120" height="60" as="geometry"/>
                </mxCell>
            </root>
        </mxGraphModel>
    </diagram>
    <diagram id="J9V6BLGrJr3ILemB7VuB" name="trabajadores">
        <mxGraphModel dx="1115" dy="474" grid="1" gridSize="10" guides="1" tooltips="1" connect="1" arrows="1" fold="1" page="1" pageScale="1" pageWidth="827" pageHeight="1169" math="0" shadow="0">
            <root>
                <mxCell id="PBf8SXoPpyY96XagwdrJ-0"/>
                <mxCell id="PBf8SXoPpyY96XagwdrJ-1" parent="PBf8SXoPpyY96XagwdrJ-0"/>
                <mxCell id="OIEbk7i0Vx8ETxRCyGti-1" style="edgeStyle=orthogonalEdgeStyle;rounded=0;orthogonalLoop=1;jettySize=auto;html=1;" parent="PBf8SXoPpyY96XagwdrJ-1" source="OIEbk7i0Vx8ETxRCyGti-0" target="OIEbk7i0Vx8ETxRCyGti-2" edge="1">
                    <mxGeometry relative="1" as="geometry">
                        <mxPoint x="90" y="360" as="targetPoint"/>
                    </mxGeometry>
                </mxCell>
                <mxCell id="OIEbk7i0Vx8ETxRCyGti-3" style="edgeStyle=orthogonalEdgeStyle;rounded=0;orthogonalLoop=1;jettySize=auto;html=1;" parent="PBf8SXoPpyY96XagwdrJ-1" source="OIEbk7i0Vx8ETxRCyGti-0" target="OIEbk7i0Vx8ETxRCyGti-4" edge="1">
                    <mxGeometry relative="1" as="geometry">
                        <mxPoint x="310" y="410" as="targetPoint"/>
                    </mxGeometry>
                </mxCell>
                <mxCell id="OIEbk7i0Vx8ETxRCyGti-5" style="edgeStyle=orthogonalEdgeStyle;rounded=0;orthogonalLoop=1;jettySize=auto;html=1;" parent="PBf8SXoPpyY96XagwdrJ-1" source="OIEbk7i0Vx8ETxRCyGti-0" target="OIEbk7i0Vx8ETxRCyGti-6" edge="1">
                    <mxGeometry relative="1" as="geometry">
                        <mxPoint x="470" y="400" as="targetPoint"/>
                    </mxGeometry>
                </mxCell>
                <mxCell id="OIEbk7i0Vx8ETxRCyGti-7" style="edgeStyle=orthogonalEdgeStyle;rounded=0;orthogonalLoop=1;jettySize=auto;html=1;" parent="PBf8SXoPpyY96XagwdrJ-1" source="OIEbk7i0Vx8ETxRCyGti-0" target="OIEbk7i0Vx8ETxRCyGti-8" edge="1">
                    <mxGeometry relative="1" as="geometry">
                        <mxPoint x="680" y="390" as="targetPoint"/>
                    </mxGeometry>
                </mxCell>
                <mxCell id="OIEbk7i0Vx8ETxRCyGti-0" value="Trabajadores" style="rounded=1;whiteSpace=wrap;html=1;" parent="PBf8SXoPpyY96XagwdrJ-1" vertex="1">
                    <mxGeometry x="410" y="160" width="120" height="60" as="geometry"/>
                </mxCell>
                <mxCell id="OIEbk7i0Vx8ETxRCyGti-2" value="Enviar invitación a trabajadores" style="rounded=1;whiteSpace=wrap;html=1;" parent="PBf8SXoPpyY96XagwdrJ-1" vertex="1">
                    <mxGeometry x="10" y="400" width="120" height="60" as="geometry"/>
                </mxCell>
                <mxCell id="OIEbk7i0Vx8ETxRCyGti-4" value="Detalles del trabajador" style="rounded=1;whiteSpace=wrap;html=1;" parent="PBf8SXoPpyY96XagwdrJ-1" vertex="1">
                    <mxGeometry x="200" y="400" width="120" height="60" as="geometry"/>
                </mxCell>
                <mxCell id="OIEbk7i0Vx8ETxRCyGti-6" value="listar trabajadores" style="rounded=1;whiteSpace=wrap;html=1;" parent="PBf8SXoPpyY96XagwdrJ-1" vertex="1">
                    <mxGeometry x="430" y="400" width="120" height="60" as="geometry"/>
                </mxCell>
                <mxCell id="OIEbk7i0Vx8ETxRCyGti-8" value="Cambiar roles" style="rounded=1;whiteSpace=wrap;html=1;" parent="PBf8SXoPpyY96XagwdrJ-1" vertex="1">
                    <mxGeometry x="610" y="400" width="120" height="60" as="geometry"/>
                </mxCell>
            </root>
        </mxGraphModel>
    </diagram>
</mxfile>